<?xml version="1.0" encoding="UTF-8"?><svg id="Layer_2" xmlns="http://www.w3.org/2000/svg" xmlns:xlink="http://www.w3.org/1999/xlink" viewBox="0 0 1296.92 408.53"><defs><style>.cls-1{fill:url(#linear-gradient);}</style><linearGradient id="linear-gradient" x1="0" y1="204.27" x2="1296.92" y2="204.27" gradientUnits="userSpaceOnUse"><stop offset="0" stop-color="#fb923c"/><stop offset=".51" stop-color="#f2af97"/><stop offset="1" stop-color="#a88bfa"/></linearGradient></defs><g id="Layer_1-2"><path class="cls-1" d="m1279.42.03c-2.09-.07-4.2.01-6.21.13C859.12,24.93,445.03,49.7,30.95,74.46c-7.75.46-16.1,1.16-21.98,6.23C1.23,87.36.62,98.92.6,109.13.4,197.81.2,286.5,0,375.19c-.02,7.75.13,16.05,4.59,22.38,6.94,9.87,20.94,10.82,33,10.82,349.33.05,698.65.27,1047.98.04,61.67-.04,123.34-.09,185.02-.09,8.33,0,17.96-.62,22.88-7.34,3.33-4.54,3.46-10.59,3.45-16.22-.09-121.66-.18-243.32-.27-364.99,0-4.96-.14-10.32-3.18-14.23-3.23-4.16-8.58-5.36-14.05-5.54Z"/></g></svg>