<?xml version="1.0" encoding="utf-8"?>
<!-- Generator: Adobe Illustrator 27.7.0, SVG Export Plug-In . SVG Version: 6.00 Build 0)  -->
<svg version="1.1" id="Layer_1" xmlns="http://www.w3.org/2000/svg" xmlns:xlink="http://www.w3.org/1999/xlink" x="0px" y="0px"
	 viewBox="0 0 554.5 328.8" style="enable-background:new 0 0 554.5 328.8;" xml:space="preserve">
<style type="text/css">
	.st0{clip-path:url(#SVGID_00000174562541645544478550000005899371709571477426_);}
	.st1{fill:none;stroke:#3B384B;stroke-width:1.37;stroke-miterlimit:10;}
	.st2{fill:#874EFF;}
	.st3{fill:#FF6337;}
</style>
<g id="Layer_2_00000051379282930640666950000010921627108558607005_">
	<g id="Layer_1-2">
		<g>
			<defs>
				<path id="SVGID_1_" d="M486.7,272.6H175.2c-55.2,0-100-44.8-100-100l0,0V2.3l0,0h411.5l0,0V272.6L486.7,272.6z"/>
			</defs>
			<clipPath id="SVGID_00000052104548342110781460000016332501782315232409_">
				<use xlink:href="#SVGID_1_"  style="overflow:visible;"/>
			</clipPath>
			<g style="clip-path:url(#SVGID_00000052104548342110781460000016332501782315232409_);">
				
					<image style="overflow:visible;enable-background:new    ;" width="7952" height="5304" xlink:href="personnes-agees-confrontees-ensemble-maladie-alzheimer.jpg"  transform="matrix(6.000000e-02 0 0 6.000000e-02 58.15 -2.265)">
				</image>
			</g>
		</g>
		
			<ellipse transform="matrix(1 -4.886913e-03 4.886913e-03 1 -0.5629 2.4867)" class="st1" cx="508.6" cy="116.4" rx="6.6" ry="6.6"/>
		
			<ellipse transform="matrix(1 -4.886928e-03 4.886928e-03 1 -0.7326 2.488)" class="st1" cx="508.7" cy="151.2" rx="6.6" ry="6.6"/>
		
			<ellipse transform="matrix(0.3782 -0.9257 0.9257 0.3782 144.3699 586.7177)" class="st1" cx="508.9" cy="185.9" rx="6.6" ry="6.6"/>
		
			<ellipse transform="matrix(0.3782 -0.9257 0.9257 0.3782 112.3165 608.4766)" class="st1" cx="509.1" cy="220.6" rx="6.6" ry="6.6"/>
		<circle class="st1" cx="535.7" cy="141.1" r="6.6"/>
		<circle class="st1" cx="535.7" cy="175.9" r="6.6"/>
		<circle class="st1" cx="535.7" cy="210.6" r="6.6"/>
		<circle class="st1" cx="535.7" cy="245.4" r="6.6"/>
		<rect x="67.7" y="105.3" class="st2" width="33.8" height="33.8"/>
		<rect x="33.8" y="71.5" class="st2" width="33.8" height="33.8"/>
		<rect y="37.6" class="st2" width="33.8" height="33.8"/>
		<path class="st3" d="M320.4,301.8c0-35.4-28.7-64.1-64.1-64.1s-64.1,28.7-64.1,64.1l0,0H320.4z"/>
		<path class="st2" d="M401.9,283.7c0,21.3,17.2,38.5,38.5,38.5c21.3,0,38.5-17.2,38.5-38.5s-17.2-38.5-38.5-38.5c0,0,0,0,0,0
			C419.1,245.2,401.9,262.4,401.9,283.7z M424.9,283.7c0-8.5,6.9-15.5,15.5-15.5c8.5,0,15.5,6.9,15.5,15.5c0,8.5-6.9,15.5-15.5,15.5
			c0,0,0,0,0,0C431.8,299.1,424.9,292.2,424.9,283.7L424.9,283.7z"/>
	</g>
</g>
</svg>
