<?xml version="1.0" encoding="utf-8"?>
<!-- Generator: Adobe Illustrator 27.7.0, SVG Export Plug-In . SVG Version: 6.00 Build 0)  -->
<svg version="1.1" id="Layer_1" xmlns="http://www.w3.org/2000/svg" xmlns:xlink="http://www.w3.org/1999/xlink" x="0px" y="0px"
	 viewBox="0 0 691.5 433.7" style="enable-background:new 0 0 691.5 433.7;" xml:space="preserve">
<style type="text/css">
	.st0{clip-path:url(#SVGID_00000160875991697086573620000012881412058158322610_);}
	.st1{clip-path:url(#SVGID_00000075845274247057819700000011460040986844327058_);}
	.st2{fill:#874EFF;}
	.st3{fill:#FF6337;}
	.st4{fill:#C718C6;}
	.st5{fill:none;stroke:#3B384B;stroke-width:1.37;stroke-miterlimit:10;}
</style>
<g id="Layer_2_00000128484696098407671660000016394339817259562160_">
	<g id="Layer_1-2">
		<g>
			<defs>
				<path id="SVGID_1_" d="M37.7,10h305.7l0,0v324.2l0,0H301c-145.4,0-263.3-117.9-263.3-263.3V10L37.7,10z"/>
			</defs>
			<clipPath id="SVGID_00000033364435554842809420000018242892088993540996_">
				<use xlink:href="#SVGID_1_"  style="overflow:visible;"/>
			</clipPath>
			<g style="clip-path:url(#SVGID_00000033364435554842809420000018242892088993540996_);">
				
					<image style="overflow:visible;enable-background:new    ;" width="7952" height="5304" xlink:href="personnes-agees-confrontees-ensemble-maladie-alzheimer.jpg"  transform="matrix(6.000000e-02 0 0 6.000000e-02 0 8.47)">
				</image>
			</g>
		</g>
		<g>
			<defs>
				<path id="SVGID_00000124155806163392844590000003204190432043744137_" d="M372.5,436V76l0,0h136.4c55.2,0,100,44.8,100,100V436
					l0,0H372.5L372.5,436z"/>
			</defs>
			<clipPath id="SVGID_00000165208649410745603110000007623256134526284211_">
				<use xlink:href="#SVGID_00000124155806163392844590000003204190432043744137_"  style="overflow:visible;"/>
			</clipPath>
			<g style="clip-path:url(#SVGID_00000165208649410745603110000007623256134526284211_);">
				
					<image style="overflow:visible;enable-background:new    ;" width="6000" height="4000" xlink:href="vieille-femme-ne-se-sentant-pas-bien-maison.jpg"  transform="matrix(9.000000e-02 0 0 9.000000e-02 129.48 73.67)">
				</image>
			</g>
		</g>
		<rect x="424.9" y="61.9" class="st2" width="31" height="31"/>
		<rect x="393.9" y="30.9" class="st2" width="31" height="31"/>
		<rect x="363" y="0" class="st2" width="31" height="31"/>
		<rect x="242.9" y="323" class="st3" width="30.9" height="31"/>
		<rect x="273.9" y="354" class="st3" width="31" height="31"/>
		<rect x="304.9" y="384.9" class="st3" width="31" height="31"/>
		<path class="st4" d="M635.7,302.1c-32.4,0-58.6-26.3-58.6-58.6s26.3-58.6,58.6-58.6V302.1z"/>
		<circle class="st5" cx="135.7" cy="339.8" r="9.1"/>
		<path class="st5" d="M183.2,330.7c5,0,9.1,4.1,9.1,9.1s-4.1,9.1-9.1,9.1s-9.1-4.1-9.1-9.1c0,0,0,0,0,0
			C174.1,334.8,178.2,330.7,183.2,330.7z"/>
		<path class="st5" d="M137,378.3c5,0,9.1,4.1,9.1,9.1s-4.1,9.1-9.1,9.1s-9.1-4.1-9.1-9.1c0,0,0,0,0,0
			C127.9,382.4,132,378.3,137,378.3z"/>
		<path class="st5" d="M184.4,378.3c5,0,9.1,4.1,9.1,9.1s-4.1,9.1-9.1,9.1s-9.1-4.1-9.1-9.1c0,0,0,0,0,0
			C175.4,382.4,179.4,378.3,184.4,378.3z"/>
	</g>
</g>
</svg>
