<?xml version="1.0" encoding="UTF-8"?><svg id="Layer_1" xmlns="http://www.w3.org/2000/svg" viewBox="0 0 541.06 150"><defs><style>.cls-1{stroke:#f25988;}.cls-1,.cls-2,.cls-3,.cls-4{fill:none;stroke-miterlimit:10;stroke-width:3.98px;}.cls-2{stroke:#fd7636;}.cls-3{stroke:#4e37c3;}.cls-4{stroke:#2fc5e6;}.cls-5{fill:#fe783a;}.cls-6{fill:#4e37c3;}</style></defs><path class="cls-5" d="m166.2,112.73l-4.36-7.33h-14.88l1.17-2.06h12.47l-8.01-13.39-13.61,22.78h-2.73l15.23-25.33c.28-.5.64-.78,1.2-.78.5,0,.85.28,1.17.78l15.2,25.33h-2.87Z"/><path class="cls-5" d="m182.89,112.73v-2.37h19.03c3.33,0,5.03-2.05,5.03-4.89,0-3.19-1.77-4.75-5.03-4.75h-12.22c-4.46,0-7.19-2.91-7.19-6.91s2.55-6.84,7.23-6.84h18.28v2.37h-18.28c-3.05,0-4.75,1.95-4.75,4.61s1.81,4.54,4.71,4.54h12.22c4.78,0,7.3,2.34,7.3,7.05,0,4.11-2.37,7.19-7.3,7.19h-19.03Z"/><path class="cls-5" d="m224.16,112.73v-2.37h19.03c3.33,0,5.03-2.05,5.03-4.89,0-3.19-1.77-4.75-5.03-4.75h-12.22c-4.46,0-7.19-2.91-7.19-6.91s2.55-6.84,7.23-6.84h18.28v2.37h-18.28c-3.05,0-4.75,1.95-4.75,4.61s1.81,4.54,4.71,4.54h12.22c4.78,0,7.3,2.34,7.3,7.05,0,4.11-2.37,7.19-7.3,7.19h-19.03Z"/><path class="cls-5" d="m276.77,112.73c-6.98,0-12.08-5.67-12.08-13.14s5.1-12.61,12.08-12.61h6.06c7.16,0,12.12,5.14,12.12,12.61s-5.07,13.14-12.12,13.14h-6.06Zm6.06-2.37c5.67,0,9.74-4.57,9.74-10.67s-4-10.35-9.74-10.35h-6.06c-5.6,0-9.67,4.22-9.67,10.35s4.07,10.67,9.67,10.67h6.06Z"/><path class="cls-5" d="m321.06,112.73c-6.98,0-12.08-5.67-12.08-13.14s5.1-12.61,12.08-12.61h13.46v2.37h-13.46c-5.6,0-9.67,4.22-9.67,10.35s4.07,10.67,9.67,10.67h13.46v2.37h-13.46Z"/><path class="cls-5" d="m349.47,112.73v-25.76h2.41v25.76h-2.41Z"/><path class="cls-5" d="m395.85,112.73l-4.36-7.33h-14.88l1.17-2.06h12.47l-8.01-13.39-13.61,22.78h-2.73l15.24-25.33c.28-.5.64-.78,1.2-.78.5,0,.85.28,1.17.78l15.2,25.33h-2.87Z"/><path class="cls-5" d="m417,112.73v-23.38h-10.42v-2.37h23.21v2.37h-10.42v23.38h-2.37Z"/><path class="cls-5" d="m444.06,112.73v-25.76h2.41v25.76h-2.41Z"/><path class="cls-5" d="m473.58,112.73c-6.98,0-12.08-5.67-12.08-13.14s5.1-12.61,12.08-12.61h6.06c7.16,0,12.12,5.14,12.12,12.61s-5.07,13.14-12.12,13.14h-6.06Zm6.06-2.37c5.67,0,9.74-4.57,9.74-10.67s-4-10.35-9.74-10.35h-6.06c-5.6,0-9.67,4.22-9.67,10.35s4.07,10.67,9.67,10.67h6.06Z"/><path class="cls-5" d="m508.69,90.41v22.32h-2.27v-24.52c0-.96.5-1.56,1.31-1.56.39,0,.78.18,1.17.6l20.98,21.97v-22.32h2.27v24.66c0,.96-.53,1.49-1.28,1.49-.43,0-.89-.25-1.24-.6l-20.94-22.04Z"/><path class="cls-6" d="m172.94,79.41c-2.81,0-3.94-1.01-5.97-3.28l-20-21.61v24.9h-10.15v-34.39c0-2.93,1.61-4.42,4.84-4.42h2.51c3.22,0,4.54.9,6.33,2.87l18.33,19.76v-22.63h10.09v34.81c0,2.63-1.31,4-3.88,4h-2.09Z"/><path class="cls-6" d="m199.87,79.41c-9.25,0-16-6.09-16-14.93s6.75-14.87,16-14.87h7.58c6.87,0,10.21,3.94,10.21,9.55,0,5.2-2.87,7.88-9.73,7.88h-10.63v-5.43h8.54c1.55,0,2.33-.66,2.33-2.09s-.72-2.21-2.27-2.21h-6.09c-3.52,0-6.03,2.57-6.03,7.11s2.51,6.81,6.03,6.81h16.24v8.18h-16.18Z"/><path class="cls-6" d="m236.95,79.41c-9.85,0-14.93-5.13-14.93-14.21v-15.58h9.97v15.58c0,3.34,1.79,5.13,5.19,5.13h5.25c3.46,0,5.19-1.79,5.19-5.13v-15.58h9.97v15.58c0,9.08-5.08,14.21-14.93,14.21h-5.73Z"/><path class="cls-6" d="m262.56,79.41v-15.58c0-9.02,5.14-14.21,14.87-14.21h8.36v9.08h-8.12c-3.4,0-5.13,1.67-5.13,5.08v15.64h-9.97Z"/><path class="cls-6" d="m303.64,79.41c-9.25,0-16-6.09-16-14.93s6.75-14.87,16-14.87h4.18c9.25,0,16,6.03,16,14.87s-6.75,14.93-16,14.93h-4.18Zm4.18-9.08c3.46,0,6.03-2.39,6.03-5.85s-2.57-5.79-6.03-5.79h-4.24c-3.52,0-6.03,2.33-6.03,5.79s2.51,5.85,6.03,5.85h4.24Z"/><path class="cls-6" d="m346.21,79.41c-10.27,0-17.73-6.81-17.73-16.72v-22.09h10.51v21.32c0,4.48,3.1,7.46,7.4,7.46h8.24c4.3,0,7.4-2.99,7.4-7.46v-21.32h10.51v22.09c0,9.91-7.46,16.72-17.73,16.72h-8.6Z"/><path class="cls-6" d="m403.59,79.41v-15.64c0-3.4-1.73-5.08-5.19-5.08h-9.97v20.72h-10.03v-29.79h20.24c9.79,0,14.93,5.19,14.93,14.21v15.58h-9.97Z"/><path class="cls-6" d="m423.41,46.69c-2.63,0-4.54-1.67-4.54-4.36s1.91-4.24,4.54-4.24h1.37c2.63,0,4.48,1.67,4.48,4.24s-1.85,4.36-4.48,4.36h-1.37Zm-4.36,32.72v-29.79h9.97v29.79h-9.97Z"/><path class="cls-6" d="m445.51,79.41c-7.17,0-10.87-4-10.87-10.93v-27.35h9.91v8.48h11.94v8.24h-11.94v9.85c0,2.33,1.13,3.52,3.52,3.52h8.12v8.18h-10.69Z"/><path class="cls-6" d="m475.54,79.41c-9.25,0-16-6.09-16-14.93s6.75-14.87,16-14.87h7.58c6.87,0,10.21,3.94,10.21,9.55,0,5.2-2.87,7.88-9.73,7.88h-10.63v-5.43h8.54c1.55,0,2.33-.66,2.33-2.09s-.72-2.21-2.27-2.21h-6.09c-3.52,0-6.03,2.57-6.03,7.11s2.51,6.81,6.03,6.81h16.24v8.18h-16.18Z"/><path class="cls-6" d="m512.79,79.41c-9.25,0-16-5.61-16-15.52,0-8.9,5.43-14.57,16.06-14.57,2.57,0,5.19.3,7.22.84v9.02c-2.03-.48-4.3-.84-6.15-.84-4.54,0-7.16,1.49-7.16,5.85,0,4.12,2.51,6.15,6.03,6.15h5.02c3.4,0,5.19-1.79,5.19-5.13v-27.65h9.97v27.65c0,9.08-5.08,14.21-14.93,14.21h-5.25Z"/><path class="cls-1" d="m28.69,83.92c.05,6.9.54,16.91,2.27,23.58,2.02,7.76,6.06,15.68,13.31,19.1,6.21,2.93,13.68,1.95,19.92-.91s11.51-7.43,16.77-11.84c5.26-4.41,10.71-8.81,17.13-11.24,6.42-2.43,13.73-2.89,19.24-6.98,7.84-5.82,9.33-17.39,6.34-26.68-1.43-4.45-3.84-8.77-7.67-11.45-3.74-2.61-8.44-3.41-12.98-3.85-11.38-1.12-27.52-.42-38.93-.72"/><path class="cls-2" d="m65.37,92.55c13.23-3.75,24.13-1.36,39.99-6.72,11.23-3.8,15.59-22.13,10.71-32.93-2.61-5.79-7.42-10.37-12.8-13.73-8.76-5.47-19-7.97-28.64-11.7-4.97-1.92-9.84-4.2-15.06-5.27-5.22-1.07-10.96-.8-15.43,2.1-3.97,2.57-6.47,6.89-8.28,11.26-4.22,10.2-5.44,21.35-6.37,32.35-.54,6.36-.85,9.63-.81,16.02"/><path class="cls-4" d="m64.09,52.92c-10.65-.29-20.88-4.86-31.52-4.67-7.79.14-15.86,2.68-21.06,8.47-4.07,4.53-6.03,10.69-6.25,16.77-.23,6.09,1.17,12.13,3.15,17.89,2.34,6.79,5.5,13.3,9.4,19.34,2.87,4.44,6.98,9.05,12.27,8.88,4.19-.14,7.6-3.28,10.58-6.23,5.21-5.16,5.64-9.95,11.48-14.39,2.85-2.17,6.38-4.42,12.94-6.34"/><path class="cls-3" d="m65.37,92.55c4.58-1.27,9.36-1.92,14.04-2.37,4.14-.41,8.58-.32,12.44-2.07,6.64-3.01,11.59-10.63,7.88-17.73-2.07-3.94-5.85-6.86-9.43-9.37-6-4.19-13.15-6.87-20.41-7.75-7.96-.96-16.25-.01-23.46,3.5-5.35,2.61-10.03,6.64-13.23,11.66s-4.86,11.05-4.46,16.99c.35,5.22,2.4,10.49,6.36,13.91,1.71,1.48,3.79,2.6,6.02,2.94,4.35.66,8.74-1.62,12.15-4.11,3.66-2.67,7.78-4.42,12.09-5.62Z"/></svg>