<?xml version="1.0" encoding="utf-8"?>
<!-- Generator: Adobe Illustrator 27.7.0, SVG Export Plug-In . SVG Version: 6.00 Build 0)  -->
<svg version="1.1" id="Layer_1" xmlns="http://www.w3.org/2000/svg" xmlns:xlink="http://www.w3.org/1999/xlink" x="0px" y="0px"
	 viewBox="0 0 1141 609" style="enable-background:new 0 0 1141 609;" xml:space="preserve">
<style type="text/css">
	.st0{fill:#816EF4;}
	.st1{fill:#72C2E0;}
	.st2{fill:#806DF5;}
	.st3{fill:#EF803E;}
	.st4{fill:#F45972;}
</style>
<circle class="st0" cx="65" cy="544" r="65"/>
<circle class="st1" cx="1110.5" cy="277.5" r="14.5"/>
<path class="st2" d="M533.1,9.3c0.9-1.1,2.3-1.7,3.7-1.5l15.2,2.2c1.4,0.2,2.6,1.1,3.1,2.5l5.7,14.3c0.5,1.3,0.3,2.8-0.6,4
	l-9.5,12.1c-0.9,1.1-2.3,1.7-3.7,1.5l-15.2-2.2c-1.4-0.2-2.6-1.1-3.1-2.5l-5.7-14.3c-0.5-1.3-0.3-2.8,0.6-4L533.1,9.3z"/>
<path class="st3" d="M56,53.8c21.3-6,65.6-0.4,72,70C104,125.8,56,114.6,56,53.8z"/>
<path class="st4" d="M1059.8,112.3c-2.5-22,10.2-64.8,80.7-59.7C1138.6,76.6,1119.8,122.2,1059.8,112.3z"/>
</svg>
